<svg xmlns="http://www.w3.org/2000/svg" viewBox="6.357 44.857 58.286 58.286" data-kind="small-16-one-color-light" data-ink="10.292 50.291 60.709 97.709" data-anchors="17" data-mode="dark" data-ground="background"><rect id="ground" x="6.357" y="44.857" width="58.286" height="58.286" fill="#0e0b09"/><path id="ping" data-color="text" data-parts="ping" fill="#f5f3f1" d="M17.71 50.291Q17.797 60.998 24.276 69.522Q30.603 77.847 40.512 80.876Q38.709 83.647 38.709 87Q38.709 87.554 38.761 88.096Q26.399 84.469 18.484 74.159Q10.38 63.603 10.292 50.291L17.71 50.291Z"/><path id="echo" data-color="accent" data-parts="echo" fill="#f5f3f1" d="M60.709 87Q60.709 91.436 57.572 94.572Q54.436 97.709 50 97.709Q45.564 97.709 42.428 94.572Q39.291 91.436 39.291 87Q39.291 82.564 42.428 79.428Q45.564 76.291 50 76.291Q54.436 76.291 57.572 79.428Q60.709 82.564 60.709 87Z"/></svg>